<svg xmlns="http://www.w3.org/2000/svg" width="2048" height="2048" viewBox="0 0 1024 1024">
  <g fill="none" stroke-linecap="round" stroke-linejoin="round">
    <path d="M185 815 C330 715 450 615 560 485 C642 392 705 325 810 268" stroke="#3b2a1d" stroke-width="20" />
    <path d="M355 705 C340 640 342 575 382 520" stroke="#4b3828" stroke-width="11" />
    <path d="M515 560 C496 500 500 446 535 398" stroke="#4b3828" stroke-width="10" />
    <path d="M650 430 C636 384 642 344 672 306" stroke="#4b3828" stroke-width="9" />

    <path d="M410 730 C455 692 502 676 550 680" stroke="#506e3f" stroke-width="14" />
    <path d="M560 600 C606 566 645 550 692 554" stroke="#506e3f" stroke-width="13" />
  </g>

  <g fill="none" stroke="#9a5f1c" stroke-linecap="round">
    <g transform="translate(540 612)">
      <circle r="22" fill="#d59b2f" stroke="none" />
      <path d="M0 -66 C8 -46 8 -22 0 -8" stroke-width="7" />
      <path d="M47 -47 C30 -36 15 -20 8 -6" stroke-width="7" />
      <path d="M66 0 C44 -8 20 -8 8 0" stroke-width="7" />
      <path d="M47 47 C30 35 15 21 8 6" stroke-width="7" />
      <path d="M0 66 C8 46 8 22 0 8" stroke-width="7" />
      <path d="M-47 47 C-30 35 -15 21 -8 6" stroke-width="7" />
      <path d="M-66 0 C-44 -8 -20 -8 -8 0" stroke-width="7" />
      <path d="M-47 -47 C-30 -36 -15 -20 -8 -6" stroke-width="7" />

      <path d="M0 -92 C11 -64 11 -32 0 -12" stroke-width="6" />
      <path d="M65 -65 C38 -51 21 -29 11 -10" stroke-width="6" />
      <path d="M92 0 C61 -11 32 -11 12 0" stroke-width="6" />
      <path d="M65 65 C38 50 21 29 11 10" stroke-width="6" />
      <path d="M0 92 C11 64 11 32 0 12" stroke-width="6" />
      <path d="M-65 65 C-38 50 -21 29 -11 10" stroke-width="6" />
      <path d="M-92 0 C-61 -11 -32 -11 -12 0" stroke-width="6" />
      <path d="M-65 -65 C-38 -51 -21 -29 -11 -10" stroke-width="6" />
    </g>

    <g transform="translate(690 488) scale(0.78)">
      <circle r="20" fill="#d59b2f" stroke="none" />
      <path d="M0 -66 C8 -46 8 -22 0 -8" stroke-width="7" />
      <path d="M47 -47 C30 -36 15 -20 8 -6" stroke-width="7" />
      <path d="M66 0 C44 -8 20 -8 8 0" stroke-width="7" />
      <path d="M47 47 C30 35 15 21 8 6" stroke-width="7" />
      <path d="M0 66 C8 46 8 22 0 8" stroke-width="7" />
      <path d="M-47 47 C-30 35 -15 21 -8 6" stroke-width="7" />
      <path d="M-66 0 C-44 -8 -20 -8 -8 0" stroke-width="7" />
      <path d="M-47 -47 C-30 -36 -15 -20 -8 -6" stroke-width="7" />
    </g>
  </g>

  <g fill="#9e1f1f">
    <rect x="760" y="760" width="96" height="96" rx="8" opacity="0.9" />
  </g>
</svg>
